HIERARCHY
ROOT Hips
{
	OFFSET -0.001795 -0.223333 0.028219
	CHANNELS 6 Xposition Yposition Zposition Zrotation Yrotation Xrotation 
	JOINT LeftUpLeg
	{
		OFFSET 0.069520 -0.091406 -0.006815
		CHANNELS 3 Zrotation Yrotation Xrotation
		JOINT LeftLeg
		{
			OFFSET 0.034277 -0.375199 -0.004496
			CHANNELS 3 Zrotation Yrotation Xrotation
			JOINT LeftFoot
			{
				OFFSET -0.013596 -0.397961 -0.043693
				CHANNELS 3 Zrotation Yrotation Xrotation
				JOINT LeftToe
				{
					OFFSET 0.026358 -0.055791 0.119288
					CHANNELS 3 Zrotation Yrotation Xrotation
					End Site
					{
						OFFSET 0.000000 0.000000 0.000000
					}
				}
			}
		}
	}
	JOINT RightUpLeg
	{
		OFFSET -0.067670 -0.090522 -0.004320
		CHANNELS 3 Zrotation Yrotation Xrotation
		JOINT RightLeg
		{
			OFFSET -0.038290 -0.382569 -0.008850
			CHANNELS 3 Zrotation Yrotation Xrotation
			JOINT RightFoot
			{
				OFFSET 0.015774 -0.398415 -0.042312
				CHANNELS 3 Zrotation Yrotation Xrotation
				JOINT RightToe
				{
					OFFSET -0.025372 -0.048144 0.123348
					CHANNELS 3 Zrotation Yrotation Xrotation
					End Site
					{
						OFFSET 0.000000 0.000000 0.000000
					}
				}
			}
		}
	}
	JOINT Spine
	{
		OFFSET -0.002533 0.108963 -0.026696
		CHANNELS 3 Zrotation Yrotation Xrotation
		JOINT Spine1
		{
			OFFSET 0.005487 0.135180 0.001092
			CHANNELS 3 Zrotation Yrotation Xrotation
			JOINT Spine2
			{
				OFFSET 0.001457 0.052922 0.025425
				CHANNELS 3 Zrotation Yrotation Xrotation
				JOINT Neck
				{
					OFFSET -0.002778 0.213870 -0.042857
					CHANNELS 3 Zrotation Yrotation Xrotation
					JOINT Head
					{
						OFFSET 0.005152 0.064970 0.051349
						CHANNELS 3 Zrotation Yrotation Xrotation
						End Site
						{
							OFFSET 0.000000 0.000000 0.000000
						}
					}
				}
				JOINT LeftShoulder
				{
					OFFSET 0.078845 0.121749 -0.034090
					CHANNELS 3 Zrotation Yrotation Xrotation
					JOINT LeftArm
					{
						OFFSET 0.090977 0.030469 -0.008868
						CHANNELS 3 Zrotation Yrotation Xrotation
						JOINT LeftForeArm
						{
							OFFSET 0.259612 -0.012772 -0.027456
							CHANNELS 3 Zrotation Yrotation Xrotation
							JOINT LeftHand
							{
								OFFSET 0.249234 0.008986 -0.001171
								CHANNELS 3 Zrotation Yrotation Xrotation
								End Site
								{
									OFFSET 0.000000 0.000000 0.000000
								}
							}
						}
					}
				}
				JOINT RightShoulder
				{
					OFFSET -0.081759 0.118833 -0.038615
					CHANNELS 3 Zrotation Yrotation Xrotation
					JOINT RightArm
					{
						OFFSET -0.096012 0.032551 -0.009143
						CHANNELS 3 Zrotation Yrotation Xrotation
						JOINT RightForeArm
						{
							OFFSET -0.253742 -0.013329 -0.021401
							CHANNELS 3 Zrotation Yrotation Xrotation
							JOINT RightHand
							{
								OFFSET -0.255298 0.007772 -0.005559
								CHANNELS 3 Zrotation Yrotation Xrotation
								End Site
								{
									OFFSET 0.000000 0.000000 0.000000
								}
							}
						}
					}
				}
			}
		}
	}
}
MOTION
Frames: 13
Frame Time: 0.050000
0.000000 0.949947 0.000000 -3.490146 13.477764 -3.248666 3.155296 0.265121 11.337889 0.420088 0.163205 -6.536812 1.862004 9.088407 12.433451 0.000000 0.000000 0.000000 2.205167 -0.567769 4.243133 -2.169934 0.412127 2.696928 5.783604 9.139326 10.590712 0.000000 0.000000 0.000000 0.386641 -0.096253 2.360625 3.666023 -2.091136 2.389317 -4.287426 -3.174674 3.519608 7.315079 -3.602135 -11.695303 0.000000 0.000000 0.000000 -31.640755 -3.595658 -2.983865 -41.900176 5.297294 -5.962175 0.034551 -23.792306 0.694842 0.000000 0.000000 0.000000 28.705513 -1.765877 -2.200299 48.280427 1.388012 -4.593105 -0.212174 31.375944 1.369905 0.000000 0.000000 0.000000 
-0.000417 0.949068 0.001150 -3.158846 13.852093 -3.098938 3.180278 0.247974 11.211013 -0.081814 0.173786 -6.423643 1.692880 8.780285 12.179869 0.000000 0.000000 0.000000 1.260329 -0.519322 4.112193 -1.355534 0.282943 2.589202 6.334197 9.998072 11.186326 0.000000 0.000000 0.000000 0.165807 -0.062490 1.685809 3.340088 -2.062436 3.424885 -4.833687 -4.463141 3.294218 8.021427 -3.795648 -13.604137 0.000000 0.000000 0.000000 -31.276178 -2.120548 -3.477495 -43.315004 4.943925 -6.195236 3.150885 -24.723465 0.079174 0.000000 0.000000 0.000000 28.788384 -2.310103 -2.993278 49.417902 0.033757 -5.057586 -0.548271 33.454539 1.305317 0.000000 0.000000 0.000000 
-0.000795 0.948739 0.002170 -2.762453 13.520216 -3.276549 3.068935 0.277290 11.144155 -0.627074 0.179630 -5.584105 1.848594 8.945038 12.077453 0.000000 0.000000 0.000000 0.720635 -0.597397 4.846656 -1.283256 0.239015 1.698987 6.746836 10.619306 11.497975 0.000000 0.000000 0.000000 0.008879 -0.087186 2.318626 3.220942 -1.805028 1.957933 -4.691707 -5.427510 4.526124 6.094652 -2.821834 -12.811338 0.000000 0.000000 0.000000 -31.296925 -2.378725 -2.785966 -43.932418 5.261052 -6.650707 3.233497 -24.184529 0.130917 0.000000 0.000000 0.000000 27.852377 -1.529533 -2.753173 49.975891 0.394186 -4.961698 0.415473 32.092869 1.429188 0.000000 0.000000 0.000000 
-0.001195 0.949398 0.003198 -2.939490 13.982117 -3.912239 2.901229 0.302599 12.195670 0.217680 0.163068 -6.315167 1.568203 8.658532 12.355592 0.000000 0.000000 0.000000 0.632696 -0.757132 6.048724 -0.748962 0.141896 1.154962 6.693097 10.623794 11.423007 0.000000 0.000000 0.000000 0.112579 -0.085557 2.261224 2.702611 -1.713113 3.373512 -4.288268 -5.781060 3.839620 6.488057 -3.064226 -12.931038 0.000000 0.000000 0.000000 -31.529311 -1.861713 -3.078327 -43.999030 6.065300 -6.919710 3.702533 -24.846887 0.036380 0.000000 0.000000 0.000000 27.368118 -1.302863 -2.689867 50.469006 0.536482 -4.859668 -0.341529 30.551640 1.123101 0.000000 0.000000 0.000000 
-0.001673 0.950302 0.003881 -2.783676 14.413747 -4.002864 3.290261 0.233676 12.336051 -0.574909 0.184286 -6.379218 1.200664 8.260360 12.681585 0.000000 0.000000 0.000000 0.336703 -0.862526 6.902724 -0.514811 0.080341 0.348686 6.677329 10.762114 11.201466 0.000000 0.000000 0.000000 -0.229684 -0.111062 2.982237 3.124215 -1.866270 2.762864 -4.780104 -5.625003 3.834874 6.515863 -3.099010 -12.563364 0.000000 0.000000 0.000000 -31.541287 -1.741370 -3.370223 -43.813926 6.291798 -6.904005 3.057514 -24.642198 0.151595 0.000000 0.000000 0.000000 27.444854 -1.554070 -2.690024 50.405844 0.531710 -4.892117 -0.229723 28.643645 1.092511 0.000000 0.000000 0.000000 
-0.001962 0.950964 0.004324 -2.832570 15.076990 -4.082493 3.395597 0.192541 12.245743 -0.458338 0.175740 -6.237385 0.851200 7.829286 12.741089 0.000000 0.000000 0.000000 0.470377 -0.971686 7.594386 -0.434718 0.052700 -0.121127 6.177450 10.183627 10.514913 0.000000 0.000000 0.000000 -0.280110 -0.120246 3.224233 3.176646 -1.837940 2.278662 -4.932156 -5.925027 4.310998 6.135772 -2.743372 -13.285449 0.000000 0.000000 0.000000 -31.454407 -1.122002 -3.796490 -43.569620 6.129760 -6.833275 1.972834 -24.457807 0.381918 0.000000 0.000000 0.000000 27.442559 -1.744995 -2.752077 50.304644 0.514755 -4.946085 -0.605093 27.409577 0.967273 0.000000 0.000000 0.000000 
-0.002091 0.951247 0.004471 -2.557017 15.425337 -4.096438 3.495303 0.166324 12.025759 -1.037434 0.184993 -5.769528 0.619751 7.528983 12.770293 0.000000 0.000000 0.000000 0.329702 -0.999099 7.820983 -0.435485 0.059082 0.053182 5.634388 9.478965 9.728455 0.000000 0.000000 0.000000 -0.567230 -0.140138 3.824713 3.104383 -1.744277 1.828889 -5.195903 -6.052227 4.388955 6.130796 -2.727464 -13.320685 0.000000 0.000000 0.000000 -31.004135 -0.839907 -3.964300 -43.831099 6.191685 -6.900961 1.744566 -23.982751 0.416243 0.000000 0.000000 0.000000 27.204334 -1.721874 -2.666822 50.509065 0.611951 -4.942977 -0.433025 25.673405 0.936608 0.000000 0.000000 0.000000 
-0.002039 0.951142 0.004627 -2.409762 15.640126 -3.850596 3.442614 0.163870 11.497079 -1.171604 0.183450 -5.275997 0.543199 7.386328 12.633258 0.000000 0.000000 0.000000 0.298515 -0.983328 7.710513 -0.416925 0.067975 0.388214 5.104558 8.900458 8.607042 0.000000 0.000000 0.000000 -0.739653 -0.157537 4.333567 3.147824 -1.767501 1.828316 -5.494514 -6.155156 3.647197 5.557743 -2.340192 -13.243341 0.000000 0.000000 0.000000 -30.640817 -0.701404 -4.051721 -43.470055 6.229220 -6.787360 1.192782 -23.430546 0.509247 0.000000 0.000000 0.000000 26.718771 -1.655817 -2.593353 50.547483 0.367057 -4.968476 0.128890 24.850335 1.003775 0.000000 0.000000 0.000000 
-0.001856 0.950982 0.004968 -2.386953 15.795726 -3.774483 3.261521 0.182415 11.248306 -0.867181 0.169446 -4.968761 0.526650 7.320061 12.476611 0.000000 0.000000 0.000000 0.470759 -0.991730 7.693704 -0.432143 0.073802 0.499473 4.569634 7.975615 8.149040 0.000000 0.000000 0.000000 -0.896348 -0.172736 4.782353 2.922922 -1.671295 1.978969 -5.431197 -6.441262 3.030085 4.985276 -2.017729 -12.948591 0.000000 0.000000 0.000000 -30.237443 -0.514642 -4.040638 -43.906581 6.082596 -6.800839 1.847649 -22.713820 0.367843 0.000000 0.000000 0.000000 26.090683 -1.210135 -2.364544 51.166312 0.077367 -5.055636 0.334463 24.385337 1.001198 0.000000 0.000000 0.000000 
-0.001722 0.950816 0.005536 -2.179081 15.990608 -3.691568 3.025333 0.209336 11.145760 -0.782717 0.163910 -4.821519 0.438719 7.187393 12.426186 0.000000 0.000000 0.000000 0.514550 -0.988853 7.647097 -0.669716 0.124125 0.982369 4.105378 7.385105 7.205719 0.000000 0.000000 0.000000 -1.152617 -0.188619 5.343811 2.864612 -1.631048 1.889600 -5.670883 -6.591441 2.518976 4.469681 -1.656899 -13.077070 0.000000 0.000000 0.000000 -30.242371 -0.378979 -4.148558 -43.779718 6.526337 -6.887985 2.199300 -22.709254 0.292480 0.000000 0.000000 0.000000 25.723299 -1.184904 -2.344016 51.414491 -0.533276 -5.272341 1.099869 24.540877 1.150823 0.000000 0.000000 0.000000 
-0.001706 0.950754 0.006412 -2.157133 16.007794 -3.486931 2.691307 0.247220 10.585448 -0.207764 0.129345 -4.129415 0.526364 7.259788 12.247259 0.000000 0.000000 0.000000 0.836764 -0.954444 7.290815 -0.853292 0.165959 1.425565 3.543522 6.317874 6.772511 0.000000 0.000000 0.000000 -1.395158 -0.189564 5.575963 2.889127 -1.625492 1.737885 -5.852778 -6.790737 2.342270 4.308268 -1.503186 -13.503556 0.000000 0.000000 0.000000 -30.167551 -0.105420 -4.269357 -43.482500 6.489110 -6.817831 2.431173 -22.922965 0.251298 0.000000 0.000000 0.000000 25.791934 -0.844503 -2.192600 51.363040 -1.195038 -5.508952 1.598311 25.419763 1.290981 0.000000 0.000000 0.000000 
-0.001965 0.950362 0.007846 -2.157233 16.528115 -3.339887 2.646644 0.230756 10.081254 0.073124 0.100962 -3.502812 0.374300 6.956913 11.925933 0.000000 0.000000 0.000000 1.512980 -0.956888 7.043767 -1.303809 0.258588 2.144561 2.540924 4.490710 5.727088 0.000000 0.000000 0.000000 -1.819332 -0.214328 6.543907 2.975250 -1.668517 1.693451 -6.038447 -7.100930 1.902069 4.406609 -1.534254 -13.685331 0.000000 0.000000 0.000000 -30.175548 -0.479188 -4.037278 -43.252495 6.455924 -6.730158 3.020585 -23.590544 0.132031 0.000000 0.000000 0.000000 25.719994 -0.963143 -2.290567 50.930123 -2.468929 -5.931282 3.092515 27.769737 1.760586 0.000000 0.000000 0.000000 
-0.002453 0.949755 0.010199 -2.391004 16.955767 -3.298182 2.794490 0.192553 9.634441 0.480827 0.058929 -2.782047 0.324379 6.743475 11.486780 0.000000 0.000000 0.000000 2.441609 -0.956071 6.707997 -1.799659 0.369923 3.109174 1.720038 2.920633 4.817583 0.000000 0.000000 0.000000 -2.220570 -0.232745 7.379837 3.328793 -1.910844 2.101246 -6.023828 -7.563670 1.369009 4.147402 -1.376518 -13.781451 0.000000 0.000000 0.000000 -30.534968 -0.711745 -3.835056 -42.390652 6.079525 -6.441475 3.044068 -24.073350 0.139442 0.000000 0.000000 0.000000 25.020894 -0.347453 -1.985421 50.349349 -4.031629 -6.399525 5.047999 30.727626 2.443405 0.000000 0.000000 0.000000 
